# xmcd CD database file
#
# Track frame offsets:
#	150
#	21394
#	42589
#	65682
#	90747
#	111565
#	133816
#	140585
#	158439
#
# Disc length: 2413 seconds
#
# Revision: 0
# Processed by: cddbd v1.5.1PL0 Copyright (c) Steve Scherf et al.
# Submitted via: CDex 1.51
#
DISCID=85096b09
DTITLE=Miles Davis - Doo-Bop
DYEAR=1900
DGENRE=Jazz
TTITLE0=Mystery
TTITLE1=The Doo Bop Song
TTITLE2=Chocolate Chip
TTITLE3=High Speed Chase
TTITLE4=Blow
TTITLE5=Sonya
TTITLE6=Fantasy
TTITLE7=Duke Booty
TTITLE8=Mystery (reprise)
EXTD=
EXTT0=
EXTT1=
EXTT2=
EXTT3=
EXTT4=
EXTT5=
EXTT6=
EXTT7=
EXTT8=
PLAYORDER=
